<?xml version="1.0" encoding="utf-8"?>
<svg version="1.1" xmlns="http://www.w3.org/2000/svg" viewBox="0 0 200 200" xml:space="preserve">
  <defs>
    <linearGradient id="bgGrad" x1="0%" y1="0%" x2="100%" y2="100%">
      <stop offset="0%" style="stop-color:#025950;stop-opacity:1" />
      <stop offset="100%" style="stop-color:#014330;stop-opacity:1" />
    </linearGradient>
    <linearGradient id="beigeGrad" x1="0%" y1="0%" x2="100%" y2="100%">
      <stop offset="0%" style="stop-color:#E8D5B7;stop-opacity:1" />
      <stop offset="100%" style="stop-color:#DABB9A;stop-opacity:1" />
    </linearGradient>
  </defs>

  <!-- Background circle -->
  <circle cx="100" cy="100" r="98" fill="url(#bgGrad)" />
  <circle cx="100" cy="100" r="95" fill="none" stroke="#E8D5B7" stroke-width="1.5" opacity="0.3" />

  <!-- Inner beige panel -->
  <rect x="30" y="25" width="140" height="150" rx="6" ry="6" fill="url(#beigeGrad)" opacity="0.95" />

  <!-- Left building (taller) -->
  <rect x="38" y="32" width="48" height="138" rx="2" ry="2" fill="#025950" />
  <!-- Left building roof peak -->
  <polygon points="38,32 62,15 86,32" fill="#025950" />
  <!-- Left building windows -->
  <rect x="44" y="42" width="8" height="5" rx="1" fill="#E8D5B7" opacity="0.85" />
  <rect x="56" y="42" width="8" height="5" rx="1" fill="#E8D5B7" opacity="0.85" />
  <rect x="68" y="42" width="8" height="5" rx="1" fill="#E8D5B7" opacity="0.85" />
  <rect x="44" y="52" width="8" height="5" rx="1" fill="#E8D5B7" opacity="0.85" />
  <rect x="56" y="52" width="8" height="5" rx="1" fill="#E8D5B7" opacity="0.85" />
  <rect x="68" y="52" width="8" height="5" rx="1" fill="#E8D5B7" opacity="0.85" />
  <rect x="44" y="62" width="8" height="5" rx="1" fill="#E8D5B7" opacity="0.85" />
  <rect x="56" y="62" width="8" height="5" rx="1" fill="#E8D5B7" opacity="0.85" />
  <rect x="68" y="62" width="8" height="5" rx="1" fill="#E8D5B7" opacity="0.85" />
  <rect x="44" y="72" width="8" height="5" rx="1" fill="#E8D5B7" opacity="0.85" />
  <rect x="56" y="72" width="8" height="5" rx="1" fill="#E8D5B7" opacity="0.85" />
  <rect x="68" y="72" width="8" height="5" rx="1" fill="#E8D5B7" opacity="0.85" />
  <rect x="44" y="82" width="8" height="5" rx="1" fill="#E8D5B7" opacity="0.85" />
  <rect x="56" y="82" width="8" height="5" rx="1" fill="#E8D5B7" opacity="0.85" />
  <rect x="68" y="82" width="8" height="5" rx="1" fill="#E8D5B7" opacity="0.85" />
  <rect x="44" y="92" width="8" height="5" rx="1" fill="#E8D5B7" opacity="0.85" />
  <rect x="56" y="92" width="8" height="5" rx="1" fill="#E8D5B7" opacity="0.85" />
  <rect x="68" y="92" width="8" height="5" rx="1" fill="#E8D5B7" opacity="0.85" />
  <rect x="44" y="102" width="8" height="5" rx="1" fill="#E8D5B7" opacity="0.85" />
  <rect x="56" y="102" width="8" height="5" rx="1" fill="#E8D5B7" opacity="0.85" />
  <rect x="68" y="102" width="8" height="5" rx="1" fill="#E8D5B7" opacity="0.85" />
  <rect x="44" y="112" width="8" height="5" rx="1" fill="#E8D5B7" opacity="0.85" />
  <rect x="56" y="112" width="8" height="5" rx="1" fill="#E8D5B7" opacity="0.85" />
  <rect x="68" y="112" width="8" height="5" rx="1" fill="#E8D5B7" opacity="0.85" />
  <rect x="44" y="122" width="8" height="5" rx="1" fill="#E8D5B7" opacity="0.85" />
  <rect x="56" y="122" width="8" height="5" rx="1" fill="#E8D5B7" opacity="0.85" />
  <rect x="68" y="122" width="8" height="5" rx="1" fill="#E8D5B7" opacity="0.85" />
  <rect x="44" y="132" width="8" height="5" rx="1" fill="#E8D5B7" opacity="0.85" />
  <rect x="56" y="132" width="8" height="5" rx="1" fill="#E8D5B7" opacity="0.85" />
  <rect x="68" y="132" width="8" height="5" rx="1" fill="#E8D5B7" opacity="0.85" />

  <!-- Right building (shorter) -->
  <rect x="92" y="55" width="50" height="115" rx="2" ry="2" fill="#025950" />
  <!-- Right building windows -->
  <rect x="98" y="62" width="8" height="5" rx="1" fill="#E8D5B7" opacity="0.85" />
  <rect x="110" y="62" width="8" height="5" rx="1" fill="#E8D5B7" opacity="0.85" />
  <rect x="122" y="62" width="8" height="5" rx="1" fill="#E8D5B7" opacity="0.85" />
  <rect x="98" y="72" width="8" height="5" rx="1" fill="#E8D5B7" opacity="0.85" />
  <rect x="110" y="72" width="8" height="5" rx="1" fill="#E8D5B7" opacity="0.85" />
  <rect x="122" y="72" width="8" height="5" rx="1" fill="#E8D5B7" opacity="0.85" />
  <rect x="98" y="82" width="8" height="5" rx="1" fill="#E8D5B7" opacity="0.85" />
  <rect x="110" y="82" width="8" height="5" rx="1" fill="#E8D5B7" opacity="0.85" />
  <rect x="122" y="82" width="8" height="5" rx="1" fill="#E8D5B7" opacity="0.85" />
  <rect x="98" y="92" width="8" height="5" rx="1" fill="#E8D5B7" opacity="0.85" />
  <rect x="110" y="92" width="8" height="5" rx="1" fill="#E8D5B7" opacity="0.85" />
  <rect x="122" y="92" width="8" height="5" rx="1" fill="#E8D5B7" opacity="0.85" />
  <rect x="98" y="102" width="8" height="5" rx="1" fill="#E8D5B7" opacity="0.85" />
  <rect x="110" y="102" width="8" height="5" rx="1" fill="#E8D5B7" opacity="0.85" />
  <rect x="122" y="102" width="8" height="5" rx="1" fill="#E8D5B7" opacity="0.85" />
  <rect x="98" y="112" width="8" height="5" rx="1" fill="#E8D5B7" opacity="0.85" />
  <rect x="110" y="112" width="8" height="5" rx="1" fill="#E8D5B7" opacity="0.85" />
  <rect x="122" y="112" width="8" height="5" rx="1" fill="#E8D5B7" opacity="0.85" />
  <rect x="98" y="122" width="8" height="5" rx="1" fill="#E8D5B7" opacity="0.85" />
  <rect x="110" y="122" width="8" height="5" rx="1" fill="#E8D5B7" opacity="0.85" />
  <rect x="122" y="122" width="8" height="5" rx="1" fill="#E8D5B7" opacity="0.85" />
  <rect x="98" y="132" width="8" height="5" rx="1" fill="#E8D5B7" opacity="0.85" />
  <rect x="110" y="132" width="8" height="5" rx="1" fill="#E8D5B7" opacity="0.85" />
  <rect x="122" y="132" width="8" height="5" rx="1" fill="#E8D5B7" opacity="0.85" />

  <!-- Text: B.S -->
  <text x="148" y="105" font-family="Arial, Helvetica, sans-serif" font-size="22" font-weight="bold" fill="#1a1a1a" text-anchor="middle">B.S</text>

  <!-- Text: Evaluation -->
  <text x="148" y="123" font-family="Arial, Helvetica, sans-serif" font-size="9" font-weight="bold" fill="#333333" text-anchor="middle">Evaluation</text>

  <!-- Bottom label -->
  <text x="100" y="188" font-family="Arial, Helvetica, sans-serif" font-size="11" font-weight="bold" fill="#E8D5B7" text-anchor="middle" letter-spacing="2">B.S EVALUATION</text>
</svg>
